<svg width="16" height="20" viewBox="0 0 16 20" fill="none" xmlns="http://www.w3.org/2000/svg">
<path d="M1.55557 17.7778C1.55557 19 2.55557 20 3.77779 20H12.6667C13.8889 20 14.8889 19 14.8889 17.7778V4.44444H1.55557V17.7778ZM5.07779 10.6556C4.87004 10.4478 4.75332 10.166 4.75332 9.87222C4.75332 9.57842 4.87004 9.29664 5.07779 9.08889C5.28554 8.88114 5.56732 8.76442 5.86112 8.76442C6.15493 8.76442 6.4367 8.88114 6.64446 9.08889L8.22224 10.6556L9.7889 9.08889C9.99665 8.88114 10.2784 8.76442 10.5722 8.76442C10.866 8.76442 11.1478 8.88114 11.3556 9.08889C11.5633 9.29664 11.68 9.57842 11.68 9.87222C11.68 10.166 11.5633 10.4478 11.3556 10.6556L9.7889 12.2222L11.3556 13.7889C11.4584 13.8918 11.54 14.0139 11.5957 14.1483C11.6514 14.2827 11.68 14.4267 11.68 14.5722C11.68 14.7177 11.6514 14.8618 11.5957 14.9962C11.54 15.1306 11.4584 15.2527 11.3556 15.3556C11.2527 15.4584 11.1306 15.54 10.9962 15.5957C10.8618 15.6514 10.7177 15.68 10.5722 15.68C10.4268 15.68 10.2827 15.6514 10.1483 15.5957C10.0139 15.54 9.89177 15.4584 9.7889 15.3556L8.22224 13.7889L6.65557 15.3556C6.5527 15.4584 6.43058 15.54 6.29617 15.5957C6.16177 15.6514 6.01771 15.68 5.87224 15.68C5.72676 15.68 5.5827 15.6514 5.4483 15.5957C5.31389 15.54 5.19177 15.4584 5.0889 15.3556C4.98603 15.2527 4.90443 15.1306 4.84876 14.9962C4.79309 14.8618 4.76443 14.7177 4.76443 14.5722C4.76443 14.4267 4.79309 14.2827 4.84876 14.1483C4.90443 14.0139 4.98603 13.8918 5.0889 13.7889L6.65557 12.2222L5.07779 10.6556ZM14.8889 1.11111H12.1111L11.3222 0.322222C11.1222 0.122222 10.8333 0 10.5445 0H5.90001C5.61112 0 5.32224 0.122222 5.12224 0.322222L4.33335 1.11111H1.55557C0.944458 1.11111 0.444458 1.61111 0.444458 2.22222C0.444458 2.83333 0.944458 3.33333 1.55557 3.33333H14.8889C15.5 3.33333 16 2.83333 16 2.22222C16 1.61111 15.5 1.11111 14.8889 1.11111Z" fill="#EE351E"/>
</svg>
