<svg width="20" height="20" viewBox="0 0 20 20" fill="none" xmlns="http://www.w3.org/2000/svg">
<path d="M2.44446 20C1.89446 20 1.42379 19.8043 1.03246 19.413C0.640458 19.021 0.444458 18.55 0.444458 18V2C0.444458 1.45 0.640458 0.979 1.03246 0.587C1.42379 0.195667 1.89446 0 2.44446 0H9.61946C9.88612 0 10.1405 0.0500001 10.3825 0.15C10.6238 0.25 10.8361 0.391667 11.0195 0.575L15.8695 5.425C16.0528 5.60833 16.1945 5.82067 16.2945 6.062C16.3945 6.304 16.4445 6.55833 16.4445 6.825V9.1L8.44446 17.075V20H2.44446ZM10.9445 20C10.8111 20 10.6945 19.95 10.5945 19.85C10.4945 19.75 10.4445 19.6333 10.4445 19.5V18.3C10.4445 18.1667 10.4738 18.0333 10.5325 17.9C10.5905 17.7667 10.6611 17.6583 10.7445 17.575L15.5945 12.7L17.7445 14.8L12.8695 19.7C12.7861 19.8 12.6778 19.875 12.5445 19.925C12.4111 19.975 12.2778 20 12.1445 20H10.9445ZM18.4695 14.1L16.3445 11.975L17.0445 11.275C17.2445 11.075 17.4861 10.975 17.7695 10.975C18.0528 10.975 18.2861 11.075 18.4695 11.275L19.1695 12C19.3528 12.2 19.4445 12.4373 19.4445 12.712C19.4445 12.9873 19.3528 13.2167 19.1695 13.4L18.4695 14.1ZM10.4445 7H14.4445L9.44446 2V6C9.44446 6.28333 9.54046 6.52067 9.73246 6.712C9.92379 6.904 10.1611 7 10.4445 7Z" fill="#AF7EEB"/>
</svg>
